<svg width="512" height="512" viewBox="0 0 512 512" fill="none" xmlns="http://www.w3.org/2000/svg">
    <path
        d="M0 64V448C0 483.346 28.6538 512 64 512H448C483.346 512 512 483.346 512 448V64C512 28.6538 483.346 0 448 0H64C28.6538 0 0 28.6538 0 64Z"
        fill="url(#paint0_linear_76_10)" />
    <path fill-rule="evenodd" clip-rule="evenodd"
        d="M0 448V64C0 28.6538 28.6538 0 64 0H448C483.346 0 512 28.6538 512 64V448C512 483.346 483.346 512 448 512H64C28.6538 512 0 483.346 0 448ZM149.869 418.1L124.269 213.3C121.722 192.928 137.607 174.933 158.139 174.933H196.273V123.733C196.273 90.7435 223.016 64 256.006 64C288.996 64 315.739 90.7435 315.739 123.733V174.933H353.874C374.405 174.933 390.29 192.928 387.744 213.3L362.144 418.1C360.009 435.182 345.488 448 328.274 448H183.739C166.524 448 152.004 435.182 149.869 418.1ZM256.006 81.0667C232.442 81.0667 213.339 100.169 213.339 123.733V174.933H298.673V123.733C298.673 100.169 279.57 81.0667 256.006 81.0667ZM286.607 263.322C280.599 261.001 274.865 259.294 269.404 258.202C264.079 256.973 259.437 256.359 255.477 256.359C250.016 256.359 245.442 258.065 241.756 261.479C238.069 264.892 236.226 269.056 236.226 273.971C236.226 279.433 238.479 283.87 242.984 287.284L245.852 289.332C246.807 289.878 247.968 290.492 249.333 291.175C250.699 291.857 252.474 292.677 254.658 293.632C256.843 294.588 259.642 295.749 263.055 297.114C266.605 298.616 269.677 299.981 272.271 301.21C274.865 302.302 277.186 303.463 279.234 304.692C281.282 305.92 283.125 307.149 284.764 308.378C286.402 309.607 287.972 310.972 289.474 312.474C293.024 315.887 295.755 319.983 297.666 324.762C299.714 329.541 300.738 334.456 300.738 339.508C300.738 345.515 299.578 351.045 297.257 356.096C294.935 361.148 291.727 365.585 287.631 369.408C283.535 373.095 278.688 375.962 273.09 378.01C267.492 380.194 261.417 381.287 254.863 381.287C247.763 381.287 240.322 380.399 232.54 378.624C224.757 376.849 217.589 374.392 211.036 371.252L216.975 352.205L231.106 356.916C234.792 358.008 237.933 358.895 240.527 359.578C243.258 360.124 245.647 360.534 247.695 360.807C249.879 360.943 252.2 361.012 254.658 361.012C261.621 361.012 267.287 359.032 271.656 355.072C276.162 351.113 278.415 346.061 278.415 339.917C278.415 333.5 275.411 328.38 269.404 324.557C268.585 324.011 267.834 323.533 267.151 323.124C266.605 322.714 265.717 322.304 264.488 321.895C263.396 321.349 261.894 320.666 259.983 319.847C258.071 318.891 255.341 317.662 251.791 316.16C246.193 313.703 241.005 311.177 236.226 308.583C231.584 305.852 227.898 303.326 225.167 301.005C221.48 298.001 218.545 294.11 216.36 289.332C214.312 284.553 213.288 279.569 213.288 274.381C213.288 268.92 214.312 263.936 216.36 259.431C218.545 254.925 221.549 251.034 225.372 247.757C229.331 244.48 233.973 241.954 239.298 240.18C244.623 238.268 250.494 237.312 256.911 237.312C263.055 237.312 269.335 237.995 275.753 239.36C282.17 240.726 288.45 242.774 294.594 245.504L286.607 263.322Z"
        fill="white" />
    <defs>
        <linearGradient id="paint0_linear_76_10" x1="0.5" y1="512" x2="512.5" y2="0"
            gradientUnits="userSpaceOnUse">
            <stop stop-color="#ff3814" />
            <stop offset="1" stop-color="#ff6347" />
        </linearGradient>
    </defs>
</svg>
    