<svg width="512" height="512" viewBox="0 0 512 512" fill="none" xmlns="http://www.w3.org/2000/svg">
    <path
        d="M0 64V448C0 483.346 28.6538 512 64 512H448C483.346 512 512 483.346 512 448V64C512 28.6538 483.346 0 448 0H64C28.6538 0 0 28.6538 0 64Z"
        fill="url(#paint0_linear_76_9)" />
    <path fill-rule="evenodd" clip-rule="evenodd"
        d="M124.269 213.3L149.869 418.1C152.004 435.182 166.524 448 183.738 448H328.274C345.488 448 360.008 435.182 362.144 418.1L387.744 213.3C390.29 192.928 374.405 174.933 353.874 174.933H315.739V123.733C315.739 90.7435 288.996 64 256.006 64C223.016 64 196.273 90.7435 196.273 123.733V174.933H158.138C137.607 174.933 121.722 192.928 124.269 213.3ZM213.339 123.733C213.339 100.169 232.442 81.0667 256.006 81.0667C279.57 81.0667 298.673 100.169 298.673 123.733V174.933H213.339V123.733ZM269.404 258.202C274.865 259.294 280.599 261.001 286.607 263.322L294.594 245.504C288.45 242.774 282.169 240.726 275.752 239.36C269.335 237.995 263.055 237.312 256.911 237.312C250.494 237.312 244.623 238.268 239.298 240.18C233.973 241.954 229.331 244.48 225.372 247.757C221.549 251.034 218.545 254.925 216.36 259.431C214.312 263.936 213.288 268.92 213.288 274.381C213.288 279.569 214.312 284.553 216.36 289.332C218.545 294.11 221.48 298.001 225.167 301.005C227.897 303.326 231.584 305.852 236.226 308.583C241.005 311.177 246.193 313.703 251.791 316.16C255.341 317.662 258.071 318.891 259.983 319.847C261.894 320.666 263.396 321.349 264.488 321.895C265.717 322.304 266.605 322.714 267.151 323.124C267.833 323.533 268.584 324.011 269.404 324.557C275.411 328.38 278.415 333.5 278.415 339.917C278.415 346.061 276.162 351.113 271.656 355.072C267.287 359.032 261.621 361.012 254.658 361.012C252.2 361.012 249.879 360.943 247.695 360.807C245.647 360.534 243.257 360.124 240.527 359.578C237.933 358.895 234.792 358.008 231.106 356.916L216.975 352.205L211.036 371.252C217.589 374.392 224.757 376.849 232.54 378.624C240.322 380.399 247.763 381.287 254.863 381.287C261.416 381.287 267.492 380.194 273.09 378.01C278.688 375.962 283.535 373.095 287.631 369.408C291.727 365.585 294.935 361.148 297.256 356.096C299.577 351.045 300.738 345.515 300.738 339.508C300.738 334.456 299.714 329.541 297.666 324.762C295.754 319.983 293.024 315.887 289.474 312.474C287.972 310.972 286.402 309.607 284.764 308.378C283.125 307.149 281.282 305.92 279.234 304.692C277.186 303.463 274.865 302.302 272.271 301.21C269.677 299.981 266.605 298.616 263.055 297.114C259.641 295.749 256.842 294.588 254.658 293.632C252.473 292.677 250.698 291.857 249.333 291.175C247.968 290.492 246.807 289.878 245.852 289.332L242.984 287.284C238.479 283.87 236.226 279.433 236.226 273.972C236.226 269.056 238.069 264.892 241.756 261.479C245.442 258.065 250.016 256.359 255.477 256.359C259.437 256.359 264.079 256.973 269.404 258.202Z"
        fill="white" />
    <defs>
        <linearGradient id="paint0_linear_76_9" x1="0.5" y1="512" x2="512.5" y2="0"
            gradientUnits="userSpaceOnUse">
            <stop stop-color="#ff3814" />
            <stop offset="1" stop-color="#ff6347" />
        </linearGradient>
    </defs>
</svg>
    